<?xml version="1.0" encoding="utf-8"?>
<!-- Generator: Adobe Illustrator 23.0.6, SVG Export Plug-In . SVG Version: 6.00 Build 0)  -->
<svg version="1.1" id="Layer_1" xmlns="http://www.w3.org/2000/svg" xmlns:xlink="http://www.w3.org/1999/xlink" x="0px" y="0px"
	 viewBox="0 0 612 792" style="enable-background:new 0 0 612 792;" xml:space="preserve">
<style type="text/css">
	.st0{fill:#FFFFFF;}
	.st1{opacity:0.38;fill:#7F3F98;}
	.st2{fill:none;}
	.st3{font-family:'MyriadPro-Regular';}
	.st4{font-size:72px;}
	.st5{fill:#92278F;}
	.st6{font-family:'COCOGOOSE-UltraLight';}
	.st7{font-size:90px;}
</style>
<g id="cZzp2Z_1_">
	<g id="bt1ek3.tif">
		<g>
			<path class="st0" d="M155.75,89.54c102.42,0,204.83,0,307.25,0c0,97.57,0,195.14,0,292.71c-102.42,0-204.83,0-307.25,0
				C155.75,284.68,155.75,187.11,155.75,89.54z M366.16,379.17c0-11.68,0-23,0-35.1c19.55,0,38.34,0,57.88,0
				c0-18.44,0-36.09,0-54.51c12.55,0,24.33,0,35.89,0c0-36.76,0-72.73,0-109.5c-12.25,0-24.04,0-36.56,0c0-18.45,0-36.1,0-54.25
				c-19.4,0-38.02,0-57.39,0c0-11.85,0-23.17,0-34.67c-38.52,0-76.28,0-114.81,0c0,11.67,0,22.99,0,35.1c-19.54,0-38.33,0-57.87,0
				c0,18.46,0,36.11,0,54.53c-12.55,0-24.33,0-35.89,0c0,36.76,0,72.73,0,109.5c12.25,0,24.04,0,36.56,0c0,18.45,0,36.1,0,54.27
				c19.39,0,38.01,0,57.37,0c0,11.86,0,23.2,0,34.63C289.87,379.17,327.63,379.17,366.16,379.17z"/>
			<path class="st1" d="M366.16,379.17c-38.53,0-76.29,0-114.81,0c0-11.43,0-22.77,0-34.63c-19.36,0-37.98,0-57.37,0
				c0-18.17,0-35.82,0-54.27c-12.53,0-24.31,0-36.56,0c0-36.77,0-72.74,0-109.5c11.56,0,23.34,0,35.89,0c0-18.42,0-36.07,0-54.53
				c19.54,0,38.33,0,57.87,0c0-12.11,0-23.44,0-35.1c38.53,0,76.29,0,114.81,0c0,11.49,0,22.82,0,34.67c19.37,0,37.99,0,57.39,0
				c0,18.16,0,35.8,0,54.25c12.53,0,24.31,0,36.56,0c0,36.77,0,72.74,0,109.5c-11.56,0-23.34,0-35.89,0c0,18.42,0,36.07,0,54.51
				c-19.54,0-38.33,0-57.88,0C366.16,356.16,366.16,367.48,366.16,379.17z M307.49,290.17c23.33,0.41,41.34-9.21,52.35-28.73
				c12.88-22.86,8.63-51.03-14.22-69.04c-15.79-12.44-34.1-15.52-52.92-10.32c-29.07,8.05-48.32,34.75-40,67.85
				C258.14,271.62,282.31,291.56,307.49,290.17z"/>
			<path class="st0" d="M307.49,290.17c-25.18,1.39-49.35-18.54-54.8-40.24c-8.32-33.1,10.93-59.8,40-67.85
				c18.82-5.21,37.13-2.13,52.92,10.32c22.86,18.01,27.11,46.18,14.22,69.04C348.83,280.96,330.82,290.58,307.49,290.17z"/>
		</g>
	</g>
</g>
<rect x="280.04" y="195.79" class="st2" width="86.46" height="65.62"/>
<text transform="matrix(1 0 0 1 280.0411 246.9111)" class="st3 st4">P</text>
<rect x="297.67" y="234.62" class="st2" width="81.25" height="87.5"/>
<text transform="matrix(1 0 0 1 297.6667 285.7363)" class="st3 st4">F</text>
<ellipse class="st0" cx="310.88" cy="231.6" rx="81.13" ry="76.04"/>
<text transform="matrix(1 0 0 1 286.2491 240.0835)" class="st5 st6 st7">P</text>
<text transform="matrix(1 0 0 1 299.3761 292.1163)" class="st5 st6 st7">F</text>
</svg>
